<?xml version="1.0" encoding="iso-8859-1"?>
<!-- Generator: Adobe Illustrator 18.1.1, SVG Export Plug-In . SVG Version: 6.00 Build 0)  -->
<svg version="1.1" id="Logo" xmlns="http://www.w3.org/2000/svg" xmlns:xlink="http://www.w3.org/1999/xlink" x="0px" y="0px"
	 viewBox="0 0 275.61 53.659" style="enable-background:new 0 0 275.61 53.659;" xml:space="preserve">
<path style="fill:#12CF6C;" d="M27.305,6.756c-11.046,0-20,8.954-20,20c0,11.046,8.954,20,20,20s20-8.954,20-20
	C47.305,15.71,38.351,6.756,27.305,6.756z M36.694,40.756l-9.406-7.223l-9.339,7.223l3.628-11.785l-9.272-7.215h11.254l3.729-11.254
	l3.763,11.254h11.254l-9.239,7.249L36.694,40.756z"/>
<g>
	<path d="M56.36,12.393c0-1.012,0.828-1.84,1.794-1.84h12.054c3.956,0,7.131,1.196,9.155,3.22c1.563,1.564,2.483,3.818,2.483,6.349
		v0.092c0,5.291-3.588,8.373-8.603,9.34l8.005,10.305c0.368,0.414,0.598,0.828,0.598,1.334c0,0.967-0.92,1.795-1.84,1.795
		c-0.736,0-1.288-0.414-1.702-0.967L69.24,30.242h-9.247v10.903c0,1.013-0.828,1.841-1.84,1.841c-0.966,0-1.794-0.828-1.794-1.841
		V12.393z M69.885,26.977c4.83,0,8.281-2.484,8.281-6.625V20.26c0-3.957-3.037-6.35-8.235-6.35h-9.937v13.066H69.885z"/>
	<path d="M89.157,40.916V12.393c0-1.012,0.828-1.84,1.794-1.84h20.013c0.92,0,1.656,0.736,1.656,1.657
		c0,0.92-0.736,1.656-1.656,1.656H92.791V24.86h16.103c0.92,0,1.656,0.783,1.656,1.656c0,0.92-0.736,1.656-1.656,1.656H92.791
		v11.271h18.402c0.92,0,1.656,0.736,1.656,1.656s-0.736,1.656-1.656,1.656H90.951C89.986,42.756,89.157,41.928,89.157,40.916z"/>
	<path d="M129.867,41.606l-12.421-28.661c-0.138-0.276-0.185-0.506-0.185-0.828c0-0.92,0.828-1.794,1.841-1.794
		c0.92,0,1.564,0.598,1.886,1.38l11.134,26.683l11.179-26.774c0.322-0.644,0.967-1.288,1.795-1.288c1.012,0,1.794,0.828,1.794,1.748
		c0,0.275-0.046,0.506-0.138,0.736l-12.468,28.799c-0.414,0.92-1.059,1.519-2.116,1.519h-0.185
		C130.926,43.124,130.236,42.526,129.867,41.606z"/>
	<path d="M153.603,12.162c0-1.012,0.828-1.84,1.794-1.84c1.012,0,1.84,0.828,1.84,1.84v28.983c0,1.013-0.828,1.841-1.84,1.841
		c-0.966,0-1.794-0.828-1.794-1.841V12.162z"/>
	<path d="M166.206,40.916V12.393c0-1.012,0.828-1.84,1.794-1.84h20.013c0.92,0,1.656,0.736,1.656,1.657
		c0,0.92-0.736,1.656-1.656,1.656H169.84V24.86h16.103c0.92,0,1.656,0.783,1.656,1.656c0,0.92-0.736,1.656-1.656,1.656H169.84
		v11.271h18.402c0.92,0,1.656,0.736,1.656,1.656s-0.736,1.656-1.656,1.656H168C167.034,42.756,166.206,41.928,166.206,40.916z"/>
	<path d="M194.633,12.99c-0.092-0.275-0.184-0.552-0.184-0.828c0-0.966,0.874-1.84,1.886-1.84c0.92,0,1.61,0.69,1.887,1.518
		l8.879,25.58l8.419-25.671c0.276-0.828,0.828-1.426,1.794-1.426h0.23c0.92,0,1.518,0.598,1.794,1.426l8.419,25.671l8.925-25.671
		c0.276-0.828,0.874-1.426,1.748-1.426c0.967,0,1.841,0.874,1.841,1.794c0,0.276-0.139,0.599-0.23,0.874l-10.305,28.615
		c-0.322,0.92-0.967,1.564-1.887,1.564h-0.275c-0.921,0-1.564-0.645-1.887-1.564l-8.373-24.75l-8.327,24.75
		c-0.321,0.92-0.966,1.564-1.886,1.564h-0.276c-0.92,0-1.564-0.598-1.886-1.564L194.633,12.99z"/>
	<path d="M244.82,38.892c-0.414-0.276-0.69-0.782-0.69-1.38c0-1.013,0.782-1.795,1.749-1.795c0.46,0,0.874,0.184,1.104,0.414
		c3.036,2.576,6.073,3.818,10.167,3.818c4.325,0,7.177-2.3,7.177-5.475v-0.092c0-2.99-1.609-4.692-8.372-6.119
		c-7.407-1.609-10.812-4.002-10.812-9.293v-0.092c0-5.061,4.462-8.787,10.581-8.787c4.232,0,7.314,1.058,10.259,3.174
		c0.368,0.276,0.782,0.782,0.782,1.472c0,0.967-0.782,1.748-1.748,1.748c-0.414,0-0.736-0.092-1.058-0.321
		c-2.715-1.979-5.337-2.807-8.327-2.807c-4.187,0-6.855,2.3-6.855,5.198v0.092c0,3.037,1.656,4.739,8.741,6.258
		c7.177,1.564,10.489,4.186,10.489,9.108v0.093c0,5.52-4.601,9.108-10.995,9.108C252.319,43.216,248.408,41.744,244.82,38.892z"/>
</g>
<g>
</g>
<g>
</g>
<g>
</g>
<g>
</g>
<g>
</g>
<g>
</g>
<g>
</g>
<g>
</g>
<g>
</g>
<g>
</g>
<g>
</g>
<g>
</g>
<g>
</g>
<g>
</g>
<g>
</g>
</svg>
