<?xml version="1.0" encoding="iso-8859-1"?>
<!-- Generator: Adobe Illustrator 18.1.1, SVG Export Plug-In . SVG Version: 6.00 Build 0)  -->
<svg version="1.1" id="Layer_1" xmlns="http://www.w3.org/2000/svg" xmlns:xlink="http://www.w3.org/1999/xlink" x="0px" y="0px"
	 viewBox="0 0 200 200" style="enable-background:new 0 0 200 200;" xml:space="preserve">
<path style="fill:#12CF6C;" d="M100.551,26.667c-29.333,0-53.112,23.779-53.112,53.112c0,29.333,23.779,53.112,53.112,53.112
	s53.112-23.779,53.112-53.112C153.663,50.446,129.884,26.667,100.551,26.667z M125.486,116.957l-24.98-19.181l-24.801,19.181
	l9.635-31.045L60.717,67h29.887l9.902-29.886L110.498,67h29.887l-24.534,19.001L125.486,116.957z"/>
<g>
	<path d="M17.62,149.918c0-0.791,0.647-1.438,1.402-1.438h9.418c3.091,0,5.571,0.935,7.153,2.516c1.222,1.222,1.94,2.983,1.94,4.96
		v0.072c0,4.134-2.803,6.542-6.721,7.297l6.254,8.051c0.288,0.324,0.467,0.647,0.467,1.042c0,0.755-0.719,1.402-1.437,1.402
		c-0.575,0-1.006-0.324-1.33-0.755l-7.081-9.202h-7.224v8.519c0,0.791-0.647,1.438-1.438,1.438c-0.755,0-1.402-0.647-1.402-1.438
		V149.918z M28.187,161.312c3.774,0,6.47-1.941,6.47-5.176v-0.072c0-3.092-2.373-4.961-6.434-4.961h-7.764v10.209H28.187z"/>
	<path d="M43.245,172.203v-22.286c0-0.791,0.647-1.438,1.402-1.438h15.636c0.719,0,1.294,0.575,1.294,1.294
		c0,0.719-0.575,1.294-1.294,1.294H46.084v8.59h12.581c0.719,0,1.294,0.612,1.294,1.294c0,0.719-0.575,1.294-1.294,1.294H46.084
		v8.806h14.378c0.719,0,1.294,0.575,1.294,1.294c0,0.719-0.575,1.294-1.294,1.294H44.646
		C43.892,173.641,43.245,172.994,43.245,172.203z"/>
	<path d="M75.052,172.742l-9.705-22.393c-0.108-0.216-0.144-0.395-0.144-0.647c0-0.719,0.647-1.402,1.438-1.402
		c0.719,0,1.222,0.467,1.473,1.078l8.699,20.847l8.734-20.919c0.252-0.503,0.755-1.006,1.402-1.006c0.79,0,1.402,0.647,1.402,1.366
		c0,0.215-0.036,0.395-0.108,0.575l-9.741,22.501c-0.324,0.719-0.827,1.186-1.653,1.186h-0.144
		C75.879,173.928,75.339,173.461,75.052,172.742z"/>
	<path d="M93.596,149.738c0-0.79,0.647-1.437,1.402-1.437c0.79,0,1.437,0.647,1.437,1.437v22.645c0,0.791-0.647,1.438-1.437,1.438
		c-0.755,0-1.402-0.647-1.402-1.438V149.738z"/>
	<path d="M103.443,172.203v-22.286c0-0.791,0.647-1.438,1.402-1.438h15.636c0.719,0,1.294,0.575,1.294,1.294
		c0,0.719-0.575,1.294-1.294,1.294h-14.199v8.59h12.581c0.719,0,1.294,0.612,1.294,1.294c0,0.719-0.575,1.294-1.294,1.294h-12.581
		v8.806h14.378c0.719,0,1.294,0.575,1.294,1.294c0,0.719-0.575,1.294-1.294,1.294h-15.815
		C104.09,173.641,103.443,172.994,103.443,172.203z"/>
	<path d="M125.653,150.385c-0.072-0.215-0.143-0.431-0.143-0.647c0-0.755,0.683-1.437,1.473-1.437c0.719,0,1.258,0.539,1.474,1.186
		l6.937,19.986l6.578-20.057c0.216-0.647,0.647-1.114,1.402-1.114h0.18c0.719,0,1.186,0.467,1.402,1.114l6.578,20.057l6.973-20.057
		c0.216-0.647,0.683-1.114,1.366-1.114c0.755,0,1.438,0.683,1.438,1.402c0,0.216-0.108,0.468-0.18,0.683l-8.051,22.357
		c-0.252,0.719-0.755,1.222-1.474,1.222h-0.215c-0.72,0-1.222-0.504-1.474-1.222l-6.542-19.337l-6.506,19.337
		c-0.251,0.719-0.755,1.222-1.473,1.222h-0.216c-0.719,0-1.222-0.467-1.473-1.222L125.653,150.385z"/>
	<path d="M164.864,170.621c-0.324-0.216-0.539-0.611-0.539-1.078c0-0.791,0.611-1.402,1.367-1.402c0.359,0,0.683,0.143,0.862,0.324
		c2.372,2.013,4.745,2.983,7.944,2.983c3.379,0,5.607-1.797,5.607-4.277v-0.072c0-2.336-1.257-3.666-6.541-4.781
		c-5.787-1.257-8.447-3.127-8.447-7.261v-0.072c0-3.954,3.486-6.865,8.267-6.865c3.307,0,5.715,0.827,8.015,2.48
		c0.288,0.216,0.611,0.611,0.611,1.15c0,0.755-0.611,1.366-1.366,1.366c-0.324,0-0.575-0.072-0.826-0.251
		c-2.121-1.546-4.17-2.193-6.506-2.193c-3.271,0-5.356,1.797-5.356,4.061v0.072c0,2.373,1.294,3.703,6.83,4.889
		c5.607,1.222,8.195,3.27,8.195,7.116v0.072c0,4.312-3.594,7.116-8.591,7.116C170.723,174,167.668,172.85,164.864,170.621z"/>
</g>
<g>
</g>
<g>
</g>
<g>
</g>
<g>
</g>
<g>
</g>
<g>
</g>
<g>
</g>
<g>
</g>
<g>
</g>
<g>
</g>
<g>
</g>
<g>
</g>
<g>
</g>
<g>
</g>
<g>
</g>
</svg>
