<?xml version="1.0" encoding="iso-8859-1"?>
<!-- Generator: Adobe Illustrator 18.1.1, SVG Export Plug-In . SVG Version: 6.00 Build 0)  -->
<svg version="1.1" id="Layer_2" xmlns="http://www.w3.org/2000/svg" xmlns:xlink="http://www.w3.org/1999/xlink" x="0px" y="0px"
	 viewBox="0 0 179.589 26.375" style="enable-background:new 0 0 179.589 26.375;" xml:space="preserve">
<g>
	<path d="M30.905,4.436c0-0.617,0.505-1.122,1.094-1.122h7.348c2.412,0,4.347,0.729,5.581,1.963c0.953,0.954,1.514,2.328,1.514,3.87
		v0.056c0,3.226-2.187,5.104-5.244,5.694l4.88,6.282c0.224,0.252,0.364,0.505,0.364,0.813c0,0.589-0.561,1.094-1.122,1.094
		c-0.449,0-0.785-0.252-1.038-0.589l-5.525-7.18H33.12v6.647c0,0.617-0.505,1.122-1.122,1.122c-0.589,0-1.094-0.505-1.094-1.122
		V4.436z M39.15,13.327c2.945,0,5.048-1.515,5.048-4.039V9.232c0-2.412-1.851-3.871-5.02-3.871H33.12v7.966H39.15z"/>
	<path d="M50.899,21.825V4.436c0-0.617,0.505-1.122,1.094-1.122h12.2c0.561,0,1.01,0.449,1.01,1.01c0,0.561-0.449,1.01-1.01,1.01
		H53.114v6.702h9.816c0.561,0,1.01,0.477,1.01,1.01c0,0.561-0.449,1.01-1.01,1.01h-9.816v6.871h11.218c0.561,0,1.01,0.449,1.01,1.01
		s-0.449,1.01-1.01,1.01h-12.34C51.404,22.946,50.899,22.441,50.899,21.825z"/>
	<path d="M75.717,22.245L68.145,4.773c-0.084-0.168-0.113-0.308-0.113-0.505c0-0.561,0.505-1.094,1.122-1.094
		c0.561,0,0.954,0.365,1.15,0.841l6.787,16.266l6.815-16.322C84.102,3.567,84.495,3.174,85,3.174c0.617,0,1.094,0.505,1.094,1.066
		c0,0.168-0.028,0.308-0.084,0.449l-7.601,17.556c-0.252,0.561-0.645,0.926-1.29,0.926h-0.113
		C76.362,23.171,75.941,22.806,75.717,22.245z"/>
	<path d="M90.186,4.296c0-0.617,0.505-1.122,1.094-1.122c0.617,0,1.122,0.505,1.122,1.122v17.669c0,0.617-0.505,1.122-1.122,1.122
		c-0.589,0-1.094-0.505-1.094-1.122V4.296z"/>
	<path d="M97.869,21.825V4.436c0-0.617,0.505-1.122,1.094-1.122h12.2c0.561,0,1.01,0.449,1.01,1.01c0,0.561-0.449,1.01-1.01,1.01
		h-11.079v6.702h9.816c0.561,0,1.01,0.477,1.01,1.01c0,0.561-0.449,1.01-1.01,1.01h-9.816v6.871h11.218
		c0.561,0,1.01,0.449,1.01,1.01s-0.449,1.01-1.01,1.01h-12.34C98.374,22.946,97.869,22.441,97.869,21.825z"/>
	<path d="M115.199,4.801c-0.056-0.168-0.112-0.336-0.112-0.505c0-0.589,0.533-1.122,1.15-1.122c0.561,0,0.982,0.421,1.15,0.925
		l5.413,15.594l5.132-15.65c0.168-0.505,0.505-0.869,1.094-0.869h0.14c0.561,0,0.925,0.365,1.094,0.869l5.132,15.65l5.441-15.65
		c0.168-0.505,0.533-0.869,1.066-0.869c0.589,0,1.122,0.533,1.122,1.094c0,0.168-0.085,0.365-0.141,0.533l-6.282,17.444
		c-0.196,0.561-0.589,0.954-1.15,0.954h-0.168c-0.561,0-0.954-0.393-1.15-0.954l-5.104-15.088l-5.076,15.088
		c-0.196,0.561-0.589,0.954-1.15,0.954h-0.168c-0.561,0-0.954-0.364-1.15-0.954L115.199,4.801z"/>
	<path d="M145.794,20.591c-0.252-0.168-0.421-0.477-0.421-0.841c0-0.617,0.477-1.094,1.066-1.094c0.28,0,0.533,0.112,0.673,0.252
		c1.851,1.57,3.702,2.328,6.198,2.328c2.637,0,4.375-1.402,4.375-3.337v-0.056c0-1.823-0.981-2.861-5.104-3.73
		c-4.516-0.981-6.591-2.44-6.591-5.665V8.39c0-3.085,2.72-5.356,6.45-5.356c2.58,0,4.459,0.645,6.254,1.935
		c0.224,0.168,0.477,0.477,0.477,0.897c0,0.589-0.477,1.066-1.066,1.066c-0.252,0-0.449-0.056-0.645-0.196
		c-1.655-1.206-3.253-1.711-5.076-1.711c-2.552,0-4.179,1.402-4.179,3.169V8.25c0,1.851,1.01,2.889,5.329,3.815
		c4.375,0.954,6.394,2.552,6.394,5.553v0.057c0,3.365-2.805,5.553-6.703,5.553C150.365,23.227,147.981,22.33,145.794,20.591z"/>
</g>
<g>
	<path d="M163.246,20.727c0.423,0,0.737,0.313,0.737,0.737v0.313c0,0.424-0.314,0.753-0.737,0.753c-0.439,0-0.753-0.329-0.753-0.753
		v-0.313C162.493,21.041,162.806,20.727,163.246,20.727z"/>
	<path d="M166.509,11.802c0-0.393,0.314-0.644,0.706-0.644c0.408,0,0.722,0.251,0.722,0.644v0.203c0,0.377-0.313,0.644-0.722,0.644
		c-0.392,0-0.706-0.267-0.706-0.644V11.802z M166.62,14.877c0-0.329,0.267-0.612,0.596-0.612c0.346,0,0.612,0.267,0.612,0.612v7.043
		c0,0.345-0.251,0.611-0.597,0.611c-0.345,0-0.611-0.267-0.611-0.611V14.877z"/>
	<path d="M170.134,18.437v-0.031c0-2.29,1.789-4.235,4.235-4.235c2.432,0,4.22,1.914,4.22,4.204v0.031
		c0,2.29-1.804,4.235-4.251,4.235C171.907,22.641,170.134,20.727,170.134,18.437z M177.35,18.437v-0.031
		c0-1.741-1.302-3.169-3.012-3.169c-1.757,0-2.965,1.428-2.965,3.138v0.031c0,1.741,1.286,3.152,2.996,3.152
		C176.126,21.558,177.35,20.147,177.35,18.437z"/>
</g>
<path style="fill:#12CF6C;" d="M13.192,1C6.459,1,1,6.459,1,13.192c0,6.734,5.459,12.192,12.192,12.192s12.192-5.459,12.192-12.192
	C25.385,6.459,19.926,1,13.192,1z M18.916,21.727l-5.734-4.403l-5.693,4.403L9.7,14.721L4.048,10.5h6.861l2.273-6.861l2.294,6.861
	h6.861l-5.632,4.241L18.916,21.727z"/>
<g>
</g>
<g>
</g>
<g>
</g>
<g>
</g>
<g>
</g>
<g>
</g>
<g>
</g>
<g>
</g>
<g>
</g>
<g>
</g>
<g>
</g>
<g>
</g>
<g>
</g>
<g>
</g>
<g>
</g>
</svg>
